<svg xmlns="http://www.w3.org/2000/svg" viewBox="0 0 512 512">
  <defs>
    <linearGradient id="bg" x1="0" y1="0" x2="1" y2="1">
      <stop offset="0" stop-color="#0b132b"/>
      <stop offset="1" stop-color="#1c2541"/>
    </linearGradient>
    <linearGradient id="ball" x1="0" y1="0" x2="1" y2="1">
      <stop offset="0" stop-color="#ffffff"/>
      <stop offset="1" stop-color="#9ee5ff"/>
    </linearGradient>
  </defs>
  <rect width="512" height="512" rx="96" fill="url(#bg)"/>
  <g transform="translate(64 90)">
    <rect x="0" y="0" width="80" height="36" rx="10" fill="#ff6b6b"/>
    <rect x="96" y="0" width="80" height="36" rx="10" fill="#ffd166"/>
    <rect x="192" y="0" width="80" height="36" rx="10" fill="#06d6a0"/>
    <rect x="288" y="0" width="80" height="36" rx="10" fill="#4cc9f0"/>

    <rect x="48" y="52" width="80" height="36" rx="10" fill="#ffd166"/>
    <rect x="144" y="52" width="80" height="36" rx="10" fill="#06d6a0"/>
    <rect x="240" y="52" width="80" height="36" rx="10" fill="#4cc9f0"/>

    <rect x="0" y="104" width="80" height="36" rx="10" fill="#06d6a0"/>
    <rect x="96" y="104" width="80" height="36" rx="10" fill="#4cc9f0"/>
    <rect x="192" y="104" width="80" height="36" rx="10" fill="#ff6b6b"/>
    <rect x="288" y="104" width="80" height="36" rx="10" fill="#ffd166"/>

    <circle cx="288" cy="206" r="24" fill="url(#ball)"/>
    <rect x="128" y="278" width="160" height="22" rx="11" fill="#f8f9fa"/>
  </g>
</svg>
